<?xml version="1.0" encoding="utf-8"?>
<!-- Generator: Adobe Illustrator 28.3.0, SVG Export Plug-In . SVG Version: 6.00 Build 0)  -->
<svg version="1.1" id="Icon" xmlns="http://www.w3.org/2000/svg" xmlns:xlink="http://www.w3.org/1999/xlink" x="0px" y="0px"
	 viewBox="0 0 1000 1000" style="enable-background:new 0 0 1000 1000;" xml:space="preserve">
<style type="text/css">
	.st0{fill:url(#SVGID_1_);}
	.st1{fill:#151518;}
	.st2{fill:#EDEDED;}
	.st3{opacity:0.5;fill:#151518;enable-background:new    ;}
</style>
<linearGradient id="SVGID_1_" gradientUnits="userSpaceOnUse" x1="499.85" y1="935.8" x2="499.85" y2="-63.1" gradientTransform="matrix(1 0 0 1 0 64)">
	<stop  offset="0" style="stop-color:#FBB023"/>
	<stop  offset="1" style="stop-color:#FBBD47"/>
</linearGradient>
<path class="st0" d="M884.1,999.8H115.7C52,999.8,0.4,948.2,0.4,884.5V116.1C0.5,52.5,52.1,0.9,115.7,0.9H884
	c63.7,0,115.3,51.6,115.3,115.3v768.3C999.3,948.1,947.7,999.8,884.1,999.8z"/>
<path class="st1" d="M236.1,105v73.4c0,32.1-26.1,58.2-58.2,58.2h-73.4c-32.1,0-58.2-26.1-58.2-58.2V105c0-32.1,26.1-58.2,58.2-58.2
	H178C210.1,46.8,236.1,72.8,236.1,105z"/>
<g id="syg">
	<g>
		<path class="st2" d="M151.5,96.4c-0.4,5.5-0.4,10.4-0.1,15.6c-2.8-1-5.8-2.2-8.4-3.3c-13-5.4-19.8-8-33.7-15.2
			c-4.5-2.3-8.5-6.8-8.7-12.1c-0.1-1.7-0.1-3-0.2-4.5v-5c9,3.9,26.1,11.6,26.1,11.6s16.7,7.6,25,11
			C151.5,95.3,151.5,95.9,151.5,96.4z"/>
	</g>
	<g>
		<path class="st2" d="M153.4,188.4c-25.8-3.1-47.9-15.8-51.6-41.2c-1.1-7.4-1.4-15.2-1.4-23.2v-12.9v-4.8l52.1,20.4
			c0.5,6.2,0.9,11.7,0.7,17.7l-36.4-14c0.1,4.3,0.3,8.6,1,12.9c2.8,18,17.3,25.6,34.8,28.5c0.1,1.2,0.2,2.4,0.2,3.7
			c0.2,3.3,0.4,7,0.5,10.1C153.3,186.6,153.3,187.5,153.4,188.4z"/>
	</g>
	<g>
		<path class="st2" d="M173.3,138.6c0,5.1-0.3,10.3-0.7,15.5c-0.6,8.2-1.6,16.5-2.2,24.7c-1.4,17.7-0.6,24.5-2.4,42.2
			c-0.2,1.5-1.3,9.4-1.7,10.9c-3.6-3.8-3.7-15.4-3.9-20c-0.1-1.8-0.1-3.3-0.2-4.7c-0.3-8.6-0.1-10.7-0.5-21.8
			c-0.3-10.4-1.9-20.8-0.7-31.2v-0.1c2.2-20-2.6-37.9-1.1-57.5c0.1-1.1,0-2.1,0-3.2c0-2-0.1-3.6,0-5.6c0.3-6.8,0.9-9.3,1.3-13
			c0.3-2.1,0.5-4.6,0.7-8.5c0.3-7.7,1.3-12.5,1.3-15c3.7,20.7,3.3,22.3,5.5,43.2c0.4,3.5,0.7,7,0.9,10.5
			C170.7,116.1,173.3,127.2,173.3,138.6z"/>
	</g>
</g>
<g>
	<path class="st3" d="M372.4,856.4h-49.2c-20.1,0-36.3-16.3-36.3-36.3V235.8c0-20.1,16.3-36.3,36.3-36.3h237.4
		c55,0,99.2,14.2,132.6,42.6c33.4,28.4,50.1,62.3,50.1,101.7v139.6c0,39.4-16.3,73.6-48.7,102.6c-32.5,29.1-75.6,43.6-129.3,43.6
		H445.1c-20.1,0-36.3,16.3-36.3,36.3v154.2C408.8,840.2,392.5,856.4,372.4,856.4z M546.5,308.2H445.1c-20.1,0-36.3,16.3-36.3,36.3
		v141.1c0,20.1,16.3,36.3,36.3,36.3h106.1c20,0,36.9-5.9,50.6-17.8c13.7-11.8,20.6-27.5,20.6-46.9v-87.1c0-19.4-7.2-34.5-21.5-45.5
		C586.5,313.7,568.4,308.2,546.5,308.2z"/>
	<path class="st1" d="M412.8,829.5h-49.2c-20.1,0-36.3-16.3-36.3-36.3V208.9c0-20.1,16.3-36.3,36.3-36.3H601
		c55,0,99.2,14.2,132.6,42.6c33.4,28.4,50.1,62.3,50.1,101.7v139.6c0,39.4-16.3,73.6-48.7,102.6c-32.5,29.1-75.6,43.6-129.3,43.6
		H485.5c-20.1,0-36.3,16.3-36.3,36.3v154.2C449.1,813.2,432.9,829.5,412.8,829.5z M586.9,281.3H485.5c-20.1,0-36.3,16.3-36.3,36.3
		v141.1c0,20.1,16.3,36.3,36.3,36.3h106.1c20,0,36.9-5.9,50.6-17.8c13.7-11.8,20.6-27.5,20.6-46.9v-87.1c0-19.4-7.2-34.5-21.5-45.5
		C626.9,286.8,608.8,281.3,586.9,281.3z"/>
</g>
</svg>
